<svg xmlns="http://www.w3.org/2000/svg" viewBox="0 0 210.35 234.47"><defs><style>.cls-1{fill:#1e3e50;stroke:#8ebccb;stroke-width:2px;}.cls-1,.cls-2{stroke-miterlimit:10;}.cls-2{fill:none;stroke:#8db9c7;stroke-width:5px;}.cls-3{fill:#fb9d20;}.cls-4{fill:#f46627;}.cls-5{fill:#fb991c;}.cls-6{fill:#05a9de;}</style></defs><g id="Layer_2" data-name="Layer 2"><g id="Layer_1-2" data-name="Layer 1"><path class="cls-1" d="M199.12,52C181.29,19,145.71-1.07,114,1.17,59.74,5,23.94,36.79,8.75,75.87c-17.19,44.22-1,81.93,3,91.75,5.29,13,13.85,25.86,43.52,41.9,4.65,2.51,18,26.29,36.48,23.76,35.37-4.84,73.65-40,84.83-56.21C191.82,154.93,226.54,102.74,199.12,52Zm-131,137.75c-7.73,5.44-18.48,2.33-24.58-2.68-8.2-6.73-12.91-20.94-5.52-30,6.41-7.83,18.89-8,27.06-3,9.37,5.76,10.25,16.67,10.31,17.65C75.54,173.64,76,184.24,68.15,189.73Z"/><polygon class="cls-2" points="150.58 119.69 109.69 160.61 60.69 81.17 125.14 54.09 150.58 119.69"/><path class="cls-3" d="M162.66,115.33A18.17,18.17,0,1,1,143,97.22c.48,0,1-.06,1.46-.06A18.18,18.18,0,0,1,162.66,115.33Z"/><path class="cls-4" d="M82,77.85a18.15,18.15,0,1,1-1.24-6.6A18.2,18.2,0,0,1,82,77.85Z"/><path class="cls-5" d="M142.35,52.69a18.16,18.16,0,1,1-18.16-18.17A18.16,18.16,0,0,1,142.35,52.69Z"/><path class="cls-6" d="M127.85,160.36a18.17,18.17,0,1,1-26.92-15.91,18.16,18.16,0,0,1,26.92,15.91Z"/></g></g></svg>